<mxfile host="app.diagrams.net">
  <diagram id="usecase_full" name="Use Case Pengaduan Lengkap">
    <mxGraphModel dx="1462" dy="834" grid="1" gridSize="10" guides="1" tooltips="1" connect="1" arrows="1" fold="1" page="1" pageScale="1" pageWidth="827" pageHeight="1169" math="0" shadow="0">
      <root>
        <mxCell id="0"/>
        <mxCell id="1" parent="0"/>
        
        <!-- Aktor -->
        <mxCell id="actorMasyarakat" value="Masyarakat" style="shape=umlActor;verticalLabelPosition=bottom;verticalAlign=top;" vertex="1" parent="1">
          <mxGeometry x="40" y="180" width="40" height="80" as="geometry"/>
        </mxCell>
        
        <mxCell id="actorAdmin" value="Admin" style="shape=umlActor;verticalLabelPosition=bottom;verticalAlign=top;" vertex="1" parent="1">
          <mxGeometry x="40" y="420" width="40" height="80" as="geometry"/>
        </mxCell>
        
        <mxCell id="actorInstansi" value="Instansi Terkait" style="shape=umlActor;verticalLabelPosition=bottom;verticalAlign=top;" vertex="1" parent="1">
          <mxGeometry x="40" y="620" width="40" height="80" as="geometry"/>
        </mxCell>
        
        <!-- System Boundary -->
        <mxCell id="system" value="Sistem Pengaduan" style="shape=rectangle;rounded=1;whiteSpace=wrap;html=1;dashed=1;" vertex="1" parent="1">
          <mxGeometry x="200" y="60" width="600" height="760" as="geometry"/>
        </mxCell>
        
        <!-- Use Cases: Masyarakat -->
        <mxCell id="login" value="Login / Daftar" style="ellipse;whiteSpace=wrap;html=1;" vertex="1" parent="system">
          <mxGeometry x="60" y="40" width="140" height="50" as="geometry"/>
        </mxCell>
        
        <mxCell id="beranda" value="Masuk Beranda" style="ellipse;whiteSpace=wrap;html=1;" vertex="1" parent="system">
          <mxGeometry x="60" y="110" width="140" height="50" as="geometry"/>
        </mxCell>
        
        <mxCell id="pilihMenu" value="Pilih Menu Buat Pengaduan" style="ellipse;whiteSpace=wrap;html=1;" vertex="1" parent="system">
          <mxGeometry x="60" y="180" width="200" height="50" as="geometry"/>
        </mxCell>
        
        <mxCell id="isiForm" value="Isi Form Pengaduan" style="ellipse;whiteSpace=wrap;html=1;" vertex="1" parent="system">
          <mxGeometry x="60" y="250" width="160" height="50" as="geometry"/>
        </mxCell>
        
        <mxCell id="kirimPengaduan" value="Kirim Pengaduan" style="ellipse;whiteSpace=wrap;html=1;" vertex="1" parent="system">
          <mxGeometry x="60" y="320" width="160" height="50" as="geometry"/>
        </mxCell>
        
        <mxCell id="lihatStatus" value="Lihat Status / Hasil Pengaduan" style="ellipse;whiteSpace=wrap;html=1;" vertex="1" parent="system">
          <mxGeometry x="60" y="390" width="220" height="50" as="geometry"/>
        </mxCell>
        
        <mxCell id="errorHandling" value="Terima Error (Form Salah)" style="ellipse;whiteSpace=wrap;html=1;" vertex="1" parent="system">
          <mxGeometry x="60" y="460" width="200" height="50" as="geometry"/>
        </mxCell>
        
        <mxCell id="notifikasiTolak" value="Terima Notifikasi Penolakan" style="ellipse;whiteSpace=wrap;html=1;" vertex="1" parent="system">
          <mxGeometry x="60" y="530" width="220" height="50" as="geometry"/>
        </mxCell>
        
        <!-- Use Cases: Admin -->
        <mxCell id="verifikasi" value="Verifikasi Laporan" style="ellipse;whiteSpace=wrap;html=1;" vertex="1" parent="system">
          <mxGeometry x="320" y="250" width="180" height="50" as="geometry"/>
        </mxCell>
        
        <mxCell id="tolakLaporan" value="Tolak Laporan" style="ellipse;whiteSpace=wrap;html=1;" vertex="1" parent="system">
          <mxGeometry x="320" y="320" width="160" height="50" as="geometry"/>
        </mxCell>
        
        <mxCell id="updateStatus" value="Update Status Laporan" style="ellipse;whiteSpace=wrap;html=1;" vertex="1" parent="system">
          <mxGeometry x="320" y="390" width="200" height="50" as="geometry"/>
        </mxCell>
        
        <!-- Use Cases: Instansi -->
        <mxCell id="tindakLanjut" value="Tindak Lanjut Laporan" style="ellipse;whiteSpace=wrap;html=1;" vertex="1" parent="system">
          <mxGeometry x="320" y="460" width="200" height="50" as="geometry"/>
        </mxCell>
        
        <!-- Associations -->
        <mxCell id="edge1" edge="1" parent="1" source="actorMasyarakat" target="login"><mxGeometry relative="1" as="geometry"/></mxCell>
        <mxCell id="edge2" edge="1" parent="1" source="actorMasyarakat" target="beranda"><mxGeometry relative="1" as="geometry"/></mxCell>
        <mxCell id="edge3" edge="1" parent="1" source="actorMasyarakat" target="pilihMenu"><mxGeometry relative="1" as="geometry"/></mxCell>
        <mxCell id="edge4" edge="1" parent="1" source="actorMasyarakat" target="isiForm"><mxGeometry relative="1" as="geometry"/></mxCell>
        <mxCell id="edge5" edge="1" parent="1" source="actorMasyarakat" target="kirimPengaduan"><mxGeometry relative="1" as="geometry"/></mxCell>
        <mxCell id="edge6" edge="1" parent="1" source="actorMasyarakat" target="lihatStatus"><mxGeometry relative="1" as="geometry"/></mxCell>
        <mxCell id="edge7" edge="1" parent="1" source="actorMasyarakat" target="errorHandling"><mxGeometry relative="1" as="geometry"/></mxCell>
        <mxCell id="edge8" edge="1" parent="1" source="actorMasyarakat" target="notifikasiTolak"><mxGeometry relative="1" as="geometry"/></mxCell>
        
        <mxCell id="edge9" edge="1" parent="1" source="actorAdmin" target="verifikasi"><mxGeometry relative="1" as="geometry"/></mxCell>
        <mxCell id="edge10" edge="1" parent="1" source="actorAdmin" target="tolakLaporan"><mxGeometry relative="1" as="geometry"/></mxCell>
        <mxCell id="edge11" edge="1" parent="1" source="actorAdmin" target="updateStatus"><mxGeometry relative="1" as="geometry"/></mxCell>
        
        <mxCell id="edge12" edge="1" parent="1" source="actorInstansi" target="tindakLanjut"><mxGeometry relative="1" as="geometry"/></mxCell>
        
      </root>
    </mxGraphModel>
  </diagram>
</mxfile>